<svg width="30" height="40" viewBox="0 0 30 40" fill="none" xmlns="http://www.w3.org/2000/svg">
<g clip-path="url(#clip0_21_19)">
<path d="M29.3889 19.3939L24.8653 22.3974L17.9653 18.4868C19.523 17.5954 20.6799 16.1053 21.0661 14.3418L29.3889 19.3939Z" fill="#1BB8EA"/>
<path d="M29.3888 25.4021L24.934 28.0955L24.8532 28.1448L20.5141 30.7889L15.0577 27.9234L24.8652 22.3973L29.3888 25.4021Z" fill="#1BB8EA"/>
<path d="M24.8652 28.165V33.6902L15.0577 39.3533V27.9235L20.514 30.789L24.8532 28.1448L24.8652 28.165Z" fill="#B1F0FE"/>
<path d="M24.8652 22.3974L15.0577 27.9235L5.28467 22.3974L11.7662 18.7106V18.7099C11.8139 18.7324 11.8632 18.7535 11.9115 18.7747V22.5672C11.9118 23.2989 12.5051 23.8915 13.2364 23.8912H16.022C16.7537 23.8915 17.3466 23.2989 17.347 22.5672V18.7987C17.5582 18.7052 17.7647 18.6013 17.9652 18.4867L24.8652 22.3974Z" fill="white"/>
<path d="M8.30664 14.7926C8.13487 14.2167 8.04898 13.6186 8.05183 13.0174C8.06319 9.72279 10.7939 6.93243 14.2164 6.73193C18.0358 6.50711 21.2076 9.41872 21.2076 13.0402C21.2079 13.4778 21.1605 13.9142 21.0661 14.3417C20.68 16.1052 19.523 17.5953 17.9654 18.4867C17.7649 18.6013 17.5584 18.7052 17.3471 18.7986V20.0825H11.9117V18.7746C11.8633 18.7535 11.8141 18.7323 11.7664 18.7099C10.1017 17.9644 8.84059 16.5365 8.30664 14.7926Z" fill="#FEDB41"/>
<path d="M17.347 20.0825V22.5672C17.3466 23.2988 16.7536 23.8915 16.022 23.8912H13.2364C12.5051 23.8915 11.9118 23.2988 11.9115 22.5672V20.0825H17.347Z" fill="#1BB8EA"/>
<path d="M15.0577 27.9235V39.3533L5.28467 33.6902V28.165L5.28814 28.1603L9.6014 30.789L15.0577 27.9235Z" fill="#B1F0FE"/>
<path d="M15.0578 27.9234L9.60152 30.7889L5.28826 28.1603L5.18153 28.0955L0.726807 25.4021L5.28478 22.3973L15.0578 27.9234Z" fill="#1BB8EA"/>
<path d="M11.7664 18.7099V18.7105L5.28478 22.3973L0.726807 19.3938L8.30659 14.7926C8.84054 16.5365 10.1017 17.9644 11.7664 18.7099Z" fill="#1BB8EA"/>
<path d="M0.080139 25.4147C0.0829809 25.6361 0.19918 25.8404 0.388004 25.9556L4.63022 28.5227V33.6901C4.6318 33.9213 4.75621 34.1344 4.95671 34.2496L14.7317 39.9128C14.9322 40.0287 15.1797 40.029 15.3805 39.9134L25.1751 34.25C25.3721 34.1331 25.4905 33.919 25.4854 33.6901V28.5022L29.71 25.9559C29.9013 25.8419 30.0213 25.6383 30.0289 25.416C30.0349 25.195 29.9269 24.9862 29.7434 24.8634L26.0327 22.398L29.7457 19.9325C29.9301 19.8103 30.039 19.6022 30.0346 19.3809C30.0305 19.1599 29.9133 18.9562 29.7242 18.8413L21.7819 14.0199C21.8299 13.6957 21.8542 13.3682 21.8542 13.0405C21.8542 11.1497 21.0661 9.3445 19.6799 8.05873C18.1939 6.67477 16.205 5.96178 14.1784 6.08651C12.3682 6.19039 10.6618 6.96621 9.39312 8.26177C8.11714 9.56364 7.41142 11.2517 7.40511 13.0149C7.40321 13.5103 7.45531 14.0045 7.56078 14.4885L0.390846 18.8406C0.20139 18.9556 0.0839282 19.1599 0.0798233 19.3815C0.0757185 19.6032 0.185287 19.8113 0.370637 19.9335L4.10953 22.3973L0.370637 24.8621C0.185602 24.9843 0.0757185 25.1927 0.080139 25.4147ZM5.92357 29.3099L9.26082 31.3409C9.45596 31.4593 9.69878 31.4669 9.90118 31.3614L14.4112 28.9935V38.231L5.92357 33.3175V29.3099ZM12.552 20.7276H16.6745V22.5672C16.6796 22.7431 16.6129 22.9133 16.4898 23.039C16.367 23.1646 16.198 23.2347 16.0222 23.2335H13.2365C13.0575 23.236 12.8845 23.1671 12.756 23.0424C12.6278 22.9174 12.5542 22.7466 12.552 22.5672V20.7276ZM11.2586 22.5672C11.264 23.6544 12.1494 24.5315 13.2365 24.5268H16.0222C16.541 24.5278 17.0386 24.3212 17.4039 23.9531C17.7696 23.5849 17.9726 23.086 17.9679 22.5672V19.2461L23.5382 22.3958L15.0518 27.1808L6.5895 22.3958L11.2586 19.7396V22.5672ZM15.7045 38.2329V28.9935L20.2135 31.362C20.3061 31.4107 20.4093 31.4362 20.5141 31.4362C20.6288 31.4362 20.7409 31.4034 20.8375 31.3418L24.1921 29.2888V33.3166L15.7045 38.2329ZM24.5972 27.5432L20.4905 30.0459L16.4105 27.9032L24.8375 23.1555L28.1814 25.3765L24.5972 27.5432ZM24.8388 21.6389L19.1898 18.4374C20.217 17.6319 20.9998 16.5564 21.4507 15.3313L28.183 19.4178L24.8388 21.6389ZM10.3167 9.16673C11.3606 8.10105 12.7648 7.4629 14.2542 7.37733C14.3764 7.37007 14.4983 7.36659 14.6199 7.36659C16.1677 7.36091 17.6597 7.94475 18.7926 8.99938C19.9186 10.0417 20.5593 11.5059 20.5609 13.0401C20.5612 13.4314 20.5189 13.8213 20.4346 14.2031C20.0964 15.7471 19.0793 17.104 17.6448 17.9252C17.4658 18.0272 17.2647 18.1223 17.0724 18.2075C16.8352 18.3095 16.6799 18.5407 16.6745 18.7986V19.4343H12.552V18.7746C12.5532 18.5173 12.4014 18.2839 12.1655 18.181L12.1491 18.1734C12.1131 18.158 12.0774 18.1422 12.042 18.1254L12.0338 18.1213C10.539 17.4535 9.40575 16.1725 8.92548 14.6076C8.77203 14.0922 8.6953 13.5574 8.69814 13.0196C8.70319 11.5949 9.27819 10.227 10.3167 9.16673ZM7.97316 15.7516C8.50395 16.9533 9.36471 17.9799 10.4557 18.7121L5.30973 21.6395L1.93585 19.4166L7.97316 15.7516ZM5.31068 23.1548L13.707 27.9023L9.62521 30.0459L5.62391 27.607L1.93775 25.3784L5.31068 23.1548Z" fill="#333333"/>
<path d="M14.6538 4.52419C15.0109 4.52419 15.3004 4.23464 15.3004 3.87752V0.646674C15.3004 0.289551 15.0109 0 14.6538 0C14.2966 0 14.0071 0.289551 14.0071 0.646674V3.87752C14.0071 4.23464 14.2966 4.52419 14.6538 4.52419Z" fill="#333333"/>
<path d="M2.06782 13.3717H5.43033C5.78745 13.3717 6.077 13.0822 6.077 12.725C6.077 12.3676 5.78745 12.0784 5.43033 12.0784H2.06782C1.71069 12.0784 1.42114 12.3676 1.42114 12.725C1.42114 13.0822 1.71069 13.3717 2.06782 13.3717Z" fill="#333333"/>
<path d="M23.1823 12.725C23.1823 13.0822 23.4718 13.3717 23.8289 13.3717H27.1917C27.5489 13.3717 27.8384 13.0822 27.8384 12.725C27.8384 12.3676 27.5489 12.0784 27.1917 12.0784H23.8289C23.4718 12.0784 23.1823 12.3676 23.1823 12.725Z" fill="#333333"/>
<path d="M7.70195 6.93061C7.96087 7.17658 8.37009 7.16616 8.61607 6.90724C8.86205 6.64832 8.85162 6.23909 8.5927 5.99312L6.19831 3.71839C5.93939 3.47242 5.53016 3.48284 5.28419 3.74176C5.03821 4.00068 5.04863 4.41022 5.30755 4.6562L7.70195 6.93061Z" fill="#333333"/>
<path d="M21.1123 7.1087C21.2781 7.1087 21.4375 7.04523 21.5578 6.93061L23.9519 4.6562C24.2108 4.41022 24.2216 4.00068 23.9753 3.74176C23.7293 3.48284 23.3201 3.47242 23.0612 3.71839L20.6671 5.99312C20.4751 6.17531 20.4138 6.45602 20.5117 6.70168C20.6099 6.94734 20.848 7.1087 21.1123 7.1087Z" fill="#333333"/>
</g>
<defs>
<clipPath id="clip0_21_19">
<rect width="30" height="40" fill="white"/>
</clipPath>
</defs>
</svg>
